<?xml version="1.0" standalone="no"?>
<!DOCTYPE svg PUBLIC "-//W3C//DTD SVG 20010904//EN"
 "http://www.w3.org/TR/2001/REC-SVG-20010904/DTD/svg10.dtd">
<svg version="1.0" xmlns="http://www.w3.org/2000/svg"
 width="473.000000pt" height="473.000000pt" viewBox="0 0 473.000000 473.000000"
 preserveAspectRatio="xMidYMid meet">
<metadata>
Created by potrace 1.14, written by Peter Selinger 2001-2017
</metadata>
<g transform="translate(0.000000,473.000000) scale(0.100000,-0.100000)"
fill="#000000" stroke="none">
<path d="M75 3500 c-11 -4 -31 -20 -45 -35 l-25 -27 -2 -1061 c-2 -837 0
-1067 10 -1087 7 -13 28 -35 46 -47 l34 -23 2278 0 2277 0 31 26 c36 30 58 64
41 64 -5 0 -10 -6 -10 -14 0 -8 -14 -26 -31 -40 l-31 -26 -2276 0 c-2258 0
-2277 0 -2310 20 -18 11 -37 32 -42 46 -7 17 -9 405 -8 1085 l3 1059 28 27 27
28 2290 0 c1260 0 2290 3 2290 8 0 10 -4550 8 -4575 -3z"/>
<path d="M4683 3473 c15 -16 27 -34 27 -41 0 -7 5 -12 11 -12 15 0 -20 54 -45
70 -16 10 -15 6 7 -17z"/>
<path d="M4725 2365 c0 -577 1 -812 2 -522 2 291 2 763 0 1050 -1 287 -2 50
-2 -528z"/>
<path d="M2012 3009 c-215 -54 -401 -234 -467 -449 -21 -70 -28 -218 -13 -301
6 -35 12 -74 12 -86 1 -11 4 -20 7 -18 3 2 11 -13 18 -33 29 -83 131 -211 221
-277 68 -50 159 -93 234 -110 83 -19 303 -21 317 -2 3 5 22 9 42 10 19 1 33 4
31 6 -2 2 26 19 64 37 37 18 86 49 109 68 22 20 47 36 54 36 7 0 9 3 6 7 -4 3
6 18 21 33 168 163 222 472 123 703 -83 194 -274 349 -476 388 -75 15 -222 9
-303 -12z m280 -378 c56 -25 102 -66 92 -82 -4 -7 -3 -9 3 -6 26 16 71 -108
67 -181 -11 -187 -180 -309 -355 -256 -128 38 -215 195 -184 334 14 65 68 146
88 133 6 -3 7 -1 3 5 -9 15 39 47 99 66 60 19 129 14 187 -13z"/>
<path d="M220 2373 l0 -628 189 3 189 3 1 122 c1 67 2 129 2 137 0 8 -1 137
-2 287 0 149 2 276 6 282 3 6 2 11 -3 11 -5 0 -7 11 -4 25 l4 25 112 -4 c125
-5 140 -7 193 -33 57 -26 83 -53 109 -108 19 -41 23 -62 20 -125 -2 -41 -10
-91 -19 -112 -35 -83 -133 -136 -267 -144 -41 -3 -80 -7 -85 -8 -7 -3 -10 -64
-9 -177 1 -96 2 -177 3 -181 0 -4 27 -5 59 -3 31 2 94 7 140 10 46 3 108 14
138 24 30 11 54 16 54 13 0 -4 4 -2 8 3 4 6 29 22 56 35 55 28 226 190 232
221 0 2 11 27 23 54 53 120 71 280 46 413 -33 174 -157 335 -310 405 -145 67
-219 77 -582 77 l-303 0 0 -627z"/>
<path d="M3266 2668 c-154 -50 -288 -195 -321 -346 -28 -130 1 -295 67 -381
10 -13 15 -28 11 -34 -3 -5 -2 -7 4 -4 13 8 55 -41 47 -55 -4 -6 -3 -8 4 -4 5
3 23 -4 39 -17 79 -63 190 -99 300 -97 76 1 164 20 212 45 16 8 32 11 36 7 5
-4 5 -2 1 5 -3 7 2 14 14 18 11 3 20 10 20 15 0 5 7 10 16 12 12 2 7 13 -21
43 -20 22 -49 56 -63 75 -15 19 -35 44 -46 55 -10 11 -25 30 -33 43 -15 22
-43 31 -43 13 0 -18 -69 -42 -102 -36 -72 14 -114 82 -117 190 -3 107 46 187
123 201 33 6 69 -4 61 -17 -3 -5 0 -6 8 -4 17 7 43 -22 52 -57 l7 -28 -85 0
c-47 0 -89 -4 -92 -10 -8 -14 -14 -101 -8 -131 l4 -24 265 3 264 3 0 71 c0
218 -145 406 -354 457 -70 17 -200 12 -270 -11z"/>
<path d="M4325 2673 c-34 -8 -119 -47 -135 -61 -87 -77 -128 -141 -149 -233
-6 -24 -11 -175 -11 -336 0 -262 2 -292 16 -295 9 -2 88 -2 175 0 l157 3 1
202 c0 330 -3 301 31 337 28 30 33 31 77 25 l48 -6 1 185 0 186 -96 -1 c-52
-1 -104 -4 -115 -6z"/>
</g>
</svg>
