<?xml version="1.0" standalone="no"?>
<!DOCTYPE svg PUBLIC "-//W3C//DTD SVG 20010904//EN"
 "http://www.w3.org/TR/2001/REC-SVG-20010904/DTD/svg10.dtd">
<svg version="1.0" xmlns="http://www.w3.org/2000/svg"
 width="1920.000000pt" height="1920.000000pt" viewBox="0 0 1920.000000 1920.000000"
 preserveAspectRatio="xMidYMid meet">
<metadata>
Created by potrace 1.14, written by Peter Selinger 2001-2017
</metadata>
<g transform="translate(0.000000,1920.000000) scale(0.100000,-0.100000)"
fill="#000000" stroke="none">
<path d="M1903 13099 c-45 -13 -100 -71 -113 -118 -7 -26 -9 -1000 -8 -3107 3
-2707 5 -3072 18 -3094 27 -44 43 -61 79 -78 33 -16 136 -17 1401 -17 1203 0
1504 4 1529 19 3 2 30 7 60 11 30 4 66 11 80 17 14 5 27 9 29 8 14 -8 218 59
317 105 397 182 670 536 766 995 22 103 24 120 36 225 11 93 10 3567 0 3670
-48 478 -255 854 -598 1091 -200 138 -437 225 -709 260 -25 3 -56 8 -70 11
-46 11 -2783 12 -2817 2z m2537 -1105 c102 -23 186 -53 212 -76 12 -11 30 -25
38 -32 54 -40 109 -148 132 -256 20 -99 19 -3376 -1 -3469 -38 -172 -99 -257
-226 -317 -129 -61 -160 -63 -862 -61 l-632 2 -23 23 -23 23 -3 2052 c-2 2015
-2 2053 17 2084 11 17 30 33 43 36 13 2 302 5 643 5 512 1 631 -2 685 -14z"/>
<path d="M8679 13106 c-2 -2 -40 -7 -84 -11 -44 -4 -87 -9 -95 -10 -8 -2 -55
-10 -105 -19 -132 -25 -296 -80 -416 -141 -184 -92 -292 -178 -437 -344 -56
-65 -143 -210 -196 -331 -41 -92 -99 -312 -112 -422 -3 -29 -10 -80 -14 -113
-10 -69 -7 -3625 2 -3670 4 -16 9 -50 12 -75 4 -38 39 -212 50 -245 1 -5 8
-30 15 -55 20 -71 76 -200 122 -280 125 -221 295 -386 529 -512 168 -91 353
-145 635 -184 71 -10 1525 -14 1615 -4 80 9 149 18 190 25 14 3 39 7 55 10
243 41 495 156 680 311 198 165 343 390 421 654 14 47 27 95 30 108 8 40 14
77 20 111 3 18 7 43 10 55 2 11 7 55 11 96 11 105 10 3578 -1 3670 -4 41 -8
82 -8 90 0 8 -4 31 -9 50 -4 19 -10 49 -13 65 -13 71 -19 96 -53 200 -53 167
-162 368 -249 462 -14 15 -38 42 -53 58 -35 39 -143 132 -206 177 -148 104
-380 198 -575 232 -47 8 -98 18 -115 21 -16 3 -50 8 -75 11 -49 7 -1574 16
-1581 10z m1280 -1111 c226 -44 322 -133 383 -355 9 -35 13 -432 15 -1705 2
-1720 2 -1725 -36 -1855 -15 -49 -73 -144 -108 -175 -47 -43 -141 -85 -232
-105 -79 -18 -126 -19 -586 -17 -275 2 -509 6 -520 9 -11 4 -42 11 -68 17
-176 41 -284 172 -315 386 -9 63 -9 3344 0 3405 19 126 81 251 151 304 28 22
132 74 147 73 3 0 30 5 60 12 30 6 64 13 75 15 11 2 232 4 490 4 368 1 486 -2
544 -13z"/>
<path d="M13499 10216 c-2 -2 -33 -6 -69 -10 -176 -17 -374 -88 -520 -187 -63
-43 -170 -151 -224 -226 -52 -74 -112 -205 -140 -312 -14 -50 -23 -91 -21 -91
3 0 1 -10 -4 -23 -20 -51 -25 -227 -25 -907 -1 -634 3 -843 18 -930 44 -253
134 -438 282 -582 163 -158 358 -245 634 -283 126 -17 1767 -21 1833 -4 32 8
48 19 62 42 17 29 19 56 19 312 -1 314 -5 339 -66 371 -31 17 -88 18 -808 19
-592 1 -789 5 -835 14 -127 28 -199 89 -238 200 -15 42 -21 93 -24 204 -6 165
2 203 45 214 14 3 436 7 936 7 1005 2 952 -2 985 65 17 33 18 75 16 586 -2
535 -4 580 -26 695 -82 435 -381 725 -829 805 -19 4 -48 9 -65 12 -32 6 -929
15 -936 9z m744 -775 c97 -23 156 -67 195 -146 35 -70 44 -150 44 -360 0 -281
2 -262 -28 -281 -23 -15 -74 -17 -512 -17 -268 0 -499 3 -514 6 -48 12 -51 33
-50 277 1 124 3 232 5 240 2 8 7 33 12 55 27 134 105 205 250 230 90 15 531
13 598 -4z"/>
<path d="M16120 10213 c-43 -14 -65 -32 -80 -66 -16 -34 -17 -163 -16 -1720 1
-1677 1 -1682 22 -1717 34 -59 54 -61 445 -58 331 3 348 4 369 23 52 47 49
-10 53 1227 3 1064 4 1158 21 1211 43 144 108 232 208 283 89 45 149 52 486
53 200 1 321 5 336 12 47 22 50 44 52 354 2 315 -2 344 -49 379 -26 19 -43 21
-220 23 -167 2 -221 -1 -322 -21 -197 -39 -387 -166 -460 -307 -45 -87 -53
-71 -57 106 -5 234 13 225 -440 224 -183 0 -340 -3 -348 -6z"/>
</g>
</svg>
